<svg width="111.110107" height="111.109985" viewBox="0 0 111.11 111.11" fill="none" xmlns="http://www.w3.org/2000/svg" xmlns:xlink="http://www.w3.org/1999/xlink">
	<desc>
			Created with Pixso.
	</desc>
	<defs/>
	<rect id="taxi__133" rx="-0.500000" width="110.110001" height="110.110001" transform="translate(0.500000 0.500000)" fill="#FFFFFF" fill-opacity="0"/>
	<path id="Форма 1" d="M34.42 85.74L34.42 88.76C34.42 93.76 30.87 97.82 26.5 97.82C22.13 97.82 18.58 93.76 18.58 88.76L18.58 85.71C15.61 85.33 13.3 82.45 13.3 78.96C13.3 77.81 13.54 76.74 13.98 75.79C14.59 74.49 14.62 72.93 14.03 71.6C13.58 70.39 13.3 69.05 13.3 67.64L13.3 58.59C13.3 55.87 14.35 53.44 16 51.77C14.39 50.74 13.3 48.77 13.3 46.5C13.3 43.18 15.66 40.48 18.57 40.48L22.55 24.16C24.11 17.53 29.14 13.24 34.04 13.33C34.9 13.31 36.94 13.3 39.7 13.3C42.35 13.3 42.8 13.3 44.99 13.3L68.75 13.3C70.94 13.3 68.75 13.3 71.4 13.3L71.4 13.3C74.16 13.3 76.2 13.31 77.06 13.33C81.96 13.24 86.99 17.53 88.55 24.16L92.37 40.48C95.15 40.66 97.36 43.29 97.36 46.5C97.36 48.61 96.41 50.47 94.97 51.55C96.68 53.21 97.81 55.82 97.81 58.59L97.81 67.64C97.81 69.06 97.52 70.39 97.02 71.58C96.43 72.92 96.46 74.5 97.08 75.82C97.56 76.73 97.81 77.81 97.81 78.96C97.81 82.45 95.49 85.33 92.52 85.71L92.52 88.76C92.52 93.76 88.97 97.82 84.6 97.82C80.23 97.82 76.68 93.76 76.68 88.76L76.68 85.74L34.42 85.74ZM76.68 49.54L79.37 49.54C80.36 49.54 81.31 49 81.92 48.1C82.53 47.19 82.73 46.01 82.47 44.91C81.31 39.93 79.49 32.2 78.54 28.13C78.16 26.52 76.88 25.4 75.43 25.4L35.67 25.4C34.22 25.4 32.94 26.52 32.56 28.13C31.61 32.2 29.79 39.93 28.63 44.91C28.37 46.01 28.57 47.19 29.18 48.1C29.79 49 30.74 49.54 31.73 49.54L34.42 49.54C37.5 49.53 73.6 49.53 76.68 49.54ZM29.14 61.61C32.06 61.61 34.42 64.31 34.42 67.64C34.42 70.97 32.06 73.68 29.14 73.68C26.23 73.68 23.86 70.97 23.86 67.64C23.86 64.31 26.23 61.61 29.14 61.61ZM87.24 67.64C87.24 64.31 84.88 61.61 81.96 61.61C79.04 61.61 76.68 64.31 76.68 67.64C76.68 70.97 79.04 73.68 81.96 73.68C84.88 73.68 87.24 70.97 87.24 67.64Z" fill="#FFFFFF" fill-opacity="1.000000" fill-rule="evenodd"/>
</svg>
