<svg width="111.110107" height="111.109985" viewBox="0 0 111.11 111.11" fill="none" xmlns="http://www.w3.org/2000/svg" xmlns:xlink="http://www.w3.org/1999/xlink">
	<desc>
			Created with Pixso.
	</desc>
	<defs>
		<clipPath id="clip13_180">
			<rect id="t-shirt-2-line" width="111.110001" height="111.110001" fill="white" fill-opacity="0"/>
		</clipPath>
	</defs>
	<rect id="t-shirt-2-line" width="111.110001" height="111.110001" fill="#FFFFFF" fill-opacity="0"/>
	<g clip-path="url(#clip13_180)">
		<path id="矢量 71" d="M42.884 13.33C42.884 17.0625 44.2185 20.6421 46.5938 23.2814C48.9692 25.9206 52.1912 27.4034 55.55 27.4034C58.9092 27.4034 62.1309 25.9206 64.5061 23.2814C66.8816 20.6421 68.2161 17.0625 68.2161 13.33L93.5481 13.33C94.6677 13.33 95.7419 13.8243 96.5334 14.704C97.3252 15.5838 97.77 16.7769 97.77 18.0211L97.77 50.8589C97.77 52.103 97.3252 53.2964 96.5334 54.176C95.7419 55.0556 94.6677 55.55 93.5481 55.55L85.0999 55.55L85.104 93.0789C85.104 94.323 84.6592 95.5164 83.8674 96.396C83.0759 97.2756 82.0017 97.77 80.8821 97.77L30.218 97.77C29.0984 97.77 28.0244 97.2756 27.2327 96.396C26.4409 95.5164 25.9961 94.323 25.9961 93.0789L25.9919 55.5453L17.552 55.55C16.4324 55.55 15.3584 55.0556 14.5667 54.176C13.7749 53.2964 13.3301 52.103 13.3301 50.8589L13.3301 18.0211C13.3301 16.7769 13.7749 15.5838 14.5667 14.704C15.3584 13.8243 16.4324 13.33 17.552 13.33L42.884 13.33ZM89.3262 22.7076L74.8994 22.7076L74.8276 22.8999C73.2268 26.8772 70.6606 30.2807 67.4167 32.7291C64.1731 35.1774 60.3796 36.5739 56.4619 36.7621L55.55 36.7856C51.4734 36.786 47.4836 35.475 44.0627 33.011C40.6418 30.547 37.9363 27.0352 36.2725 22.8999L36.1965 22.7122L21.7742 22.7122L21.7742 46.1678L34.4358 46.1631L34.4358 88.3878L76.6602 88.3878L76.6558 46.1678L89.3262 46.1631L89.3262 22.7076Z" fill="#FFFFFF" fill-opacity="1.000000" fill-rule="evenodd"/>
	</g>
</svg>
