<svg width="112.000000" height="112.000000" viewBox="0 0 112 112" fill="none" xmlns="http://www.w3.org/2000/svg" xmlns:xlink="http://www.w3.org/1999/xlink">
	<desc>
			Created with Pixso.
	</desc>
	<defs>
		<clipPath id="clip16_95">
			<rect id="delete_forever" width="111.110001" height="111.110001" fill="white" fill-opacity="0"/>
		</clipPath>
	</defs>
	<rect id="delete_forever" width="111.110001" height="111.110001" fill="#FFFFFF" fill-opacity="0"/>
	<g clip-path="url(#clip16_95)">
		<path id="矢量 91" d="M25.36 88.38C25.36 93.54 29.88 97.77 35.42 97.77L75.67 97.77C81.21 97.77 85.73 93.54 85.73 88.38L85.73 32.09L25.36 32.09L25.36 88.38ZM37.73 54.98L44.83 48.37L55.55 58.31L66.21 48.37L73.31 54.98L62.64 64.93L73.31 74.87L66.21 81.49L55.55 71.54L44.88 81.49L37.78 74.87L48.45 64.93L37.73 54.98ZM73.16 18.02L68.12 13.33L42.97 13.33L37.94 18.02L20.33 18.02L20.33 27.4L90.77 27.4L90.77 18.02L73.16 18.02Z" fill="#FFFFFF" fill-opacity="1.000000" fill-rule="evenodd"/>
	</g>
</svg>
