<svg width="112.000000" height="112.000000" viewBox="0 0 112 112" fill="none" xmlns="http://www.w3.org/2000/svg" xmlns:xlink="http://www.w3.org/1999/xlink">
	<desc>
			Created with Pixso.
	</desc>
	<defs>
		<clipPath id="clip23_118">
			<rect id="gift-line" width="111.110001" height="111.110001" fill="white" fill-opacity="0"/>
		</clipPath>
	</defs>
	<rect id="gift-line" width="111.110001" height="111.110001" fill="#FFFFFF" fill-opacity="0"/>
	<g clip-path="url(#clip23_118)">
		<path id="矢量 41" d="M68.58 13.33C71.61 13.32 74.6 14.15 77.23 15.71C79.85 17.27 82.04 19.51 83.55 22.22C85.07 24.92 85.87 27.99 85.87 31.11C85.87 34.23 85.07 37.3 83.55 40L97.78 39.99L97.78 48.88L94.51 48.88L94.51 93.33C94.51 94.51 94.06 95.64 93.25 96.47C92.44 97.31 91.34 97.78 90.19 97.78L21.03 97.78C19.89 97.78 18.79 97.31 17.98 96.47C17.17 95.64 16.71 94.51 16.71 93.33L16.71 48.88L13.33 48.88L13.33 39.97L27.67 40C25.53 36.18 24.84 31.68 25.74 27.37C26.64 23.06 29.07 19.24 32.55 16.67C36.04 14.1 40.32 12.95 44.58 13.44C48.85 13.93 52.78 16.04 55.61 19.35C57.23 17.45 59.23 15.93 61.46 14.89C63.7 13.86 66.13 13.32 68.58 13.33L68.58 13.33ZM51.29 48.88L25.36 48.88L25.36 88.89L51.29 88.89L51.29 48.88ZM85.87 48.88L59.93 48.88L59.93 88.89L85.87 88.89L85.87 48.88ZM42.65 22.21C40.4 22.2 38.24 23.09 36.62 24.69C35 26.28 34.05 28.47 33.97 30.77C33.88 33.08 34.67 35.32 36.17 37.04C37.67 38.76 39.76 39.81 42 39.97L42.65 39.99L51.29 39.99L51.29 31.1C51.29 28.98 50.55 26.93 49.2 25.31C47.86 23.7 46 22.64 43.96 22.32L43.29 22.24L42.65 22.21ZM68.58 22.21C66.4 22.21 64.3 23.06 62.7 24.59C61.1 26.11 60.12 28.2 59.96 30.44L59.93 31.1L59.93 39.99L68.58 39.99C70.76 39.99 72.86 39.15 74.46 37.62C76.06 36.1 77.04 34.01 77.2 31.77L77.22 31.1C77.22 28.75 76.31 26.49 74.69 24.82C73.07 23.15 70.87 22.21 68.58 22.21L68.58 22.21Z" fill="#FFFFFF" fill-opacity="1.000000" fill-rule="evenodd"/>
	</g>
</svg>
