<svg width="111.111084" height="111.111084" viewBox="0 0 111.111 111.111" fill="none" xmlns="http://www.w3.org/2000/svg" xmlns:xlink="http://www.w3.org/1999/xlink">
	<desc>
			Created with Pixso.
	</desc>
	<defs>
		<clipPath id="clip13_127">
			<rect id="shopping-basket-line" width="111.111107" height="111.111107" fill="white" fill-opacity="0"/>
		</clipPath>
	</defs>
	<rect id="shopping-basket-line" width="111.111107" height="111.111107" fill="#FFFFFF" fill-opacity="0"/>
	<g clip-path="url(#clip13_127)">
		<path id="矢量 11" d="M89.3506 21.3559C98.9006 31.7162 99.23 48.216 90.3469 58.9782L54.5452 97.77L18.7517 58.9782C9.86865 48.216 10.2021 31.6888 19.748 21.3559C29.3108 11.0139 44.6067 10.6667 54.5535 20.3144C64.4707 10.6805 79.7964 11.0002 89.3506 21.3559L89.3506 21.3559ZM25.7222 27.8197C19.4314 34.6261 19.1147 45.5208 24.9114 52.72L54.5493 84.8379L84.1873 52.7246C89.988 45.5208 89.6714 34.6398 83.3723 27.8105C77.0945 21.0042 66.9871 20.6753 60.3501 26.9609L42.6099 46.1603L36.6357 39.7011L48.5625 26.7873L48.2163 26.4721C41.5669 20.6936 31.8481 21.1869 25.7222 27.8197L25.7222 27.8197Z" fill="#FFFFFF" fill-opacity="1.000000" fill-rule="evenodd"/>
	</g>
</svg>
