<svg width="111.000000" height="99.000000" viewBox="0 0 111 99" fill="none" xmlns="http://www.w3.org/2000/svg" xmlns:xlink="http://www.w3.org/1999/xlink">
	<desc>
			Created with Pixso.
	</desc>
	<defs/>
	<path id="矢量 26" d="M88.91 94L21.08 94C19.8 94 18.57 93.51 17.66 92.65C16.75 91.79 16.24 90.63 16.24 89.41L16.24 48.19L10 48.19L51.73 5.19C52.63 4.42 53.79 4 55 4C56.2 4 57.36 4.42 58.26 5.19L100 48.19L93.75 48.19L93.75 89.41C93.75 90.63 93.24 91.79 92.33 92.65C91.42 93.51 90.19 94 88.91 94ZM25.93 84.83L84.06 84.83L84.06 46L55 14.77L25.93 46L25.93 84.83Z" fill="#FFFFFF" fill-opacity="1.000000" fill-rule="evenodd"/>
	<path id="矢量 26" d="M21.08 94C19.8 94 18.57 93.51 17.66 92.65C16.75 91.79 16.24 90.63 16.24 89.41L16.24 48.19L10 48.19L51.73 5.19C52.63 4.42 53.79 4 55 4C56.2 4 57.36 4.42 58.26 5.19L100 48.19L93.75 48.19L93.75 89.41C93.75 90.63 93.24 91.79 92.33 92.65C91.42 93.51 90.19 94 88.91 94L21.08 94ZM84.06 84.83L84.06 46L55 14.77L25.93 46L25.93 84.83L84.06 84.83Z" stroke="#FFFFFF" stroke-opacity="1.000000" stroke-width="9.000000"/>
</svg>
