<svg width="111.111084" height="111.111115" viewBox="0 0 111.111 111.111" fill="none" xmlns="http://www.w3.org/2000/svg" xmlns:xlink="http://www.w3.org/1999/xlink">
	<desc>
			Created with Pixso.
	</desc>
	<defs>
		<clipPath id="clip13_83">
			<rect id="shopping-basket-line" width="111.111107" height="111.111107" fill="white" fill-opacity="0"/>
		</clipPath>
	</defs>
	<rect id="shopping-basket-line" width="111.111107" height="111.111107" fill="#FFFFFF" fill-opacity="0"/>
	<g clip-path="url(#clip13_83)">
		<path id="矢量 10" d="M93.5481 97.77L17.552 97.77C16.4324 97.77 15.3584 97.2756 14.5667 96.396C13.7749 95.5164 13.3301 94.323 13.3301 93.0789L13.3301 57.8346C13.3301 57.1642 13.4592 56.5018 13.709 55.8915C13.9587 55.2817 14.3235 54.738 14.7783 54.2975L30.218 39.3375L30.218 18.0211C30.218 16.7769 30.6628 15.5838 31.4546 14.704C32.2463 13.8243 33.3203 13.33 34.4402 13.33L93.5481 13.33C94.6677 13.33 95.7419 13.8243 96.5334 14.704C97.3252 15.5838 97.77 16.7769 97.77 18.0211L97.77 93.0789C97.77 94.323 97.3252 95.5164 96.5334 96.396C95.7419 97.2756 94.6677 97.77 93.5481 97.77ZM42.884 88.3878L55.55 88.3878L55.55 59.969L38.6621 43.6064L21.7742 59.969L21.7742 88.3878L34.4402 88.3878L34.4402 69.6233L42.884 69.6233L42.884 88.3878ZM63.9941 88.3878L89.3262 88.3878L89.3262 22.7122L38.6621 22.7122L38.6621 32.6902C39.6501 32.6902 40.6421 33.0749 41.436 33.8489L62.5459 54.2975C63.0007 54.738 63.3655 55.2817 63.615 55.8915C63.865 56.5018 63.9941 57.1642 63.9941 57.8346L63.9941 88.3878ZM72.438 50.8589L80.8821 50.8589L80.8821 60.2411L72.438 60.2411L72.438 50.8589ZM72.438 69.6233L80.8821 69.6233L80.8821 79.0056L72.438 79.0056L72.438 69.6233ZM72.438 32.0945L80.8821 32.0945L80.8821 41.4767L72.438 41.4767L72.438 32.0945ZM55.55 32.0945L63.9941 32.0945L63.9941 41.4767L55.55 41.4767L55.55 32.0945Z" fill="#FFFFFF" fill-opacity="1.000000" fill-rule="evenodd"/>
	</g>
</svg>
