<svg width="111.111084" height="111.111115" viewBox="0 0 111.111 111.111" fill="none" xmlns="http://www.w3.org/2000/svg" xmlns:xlink="http://www.w3.org/1999/xlink">
	<desc>
			Created with Pixso.
	</desc>
	<defs>
		<clipPath id="clip11_80">
			<rect id="shopping-basket-line" width="111.111107" height="111.111107" fill="white" fill-opacity="0"/>
		</clipPath>
	</defs>
	<rect id="shopping-basket-line" width="111.111107" height="111.111107" fill="#FFFFFF" fill-opacity="0"/>
	<g clip-path="url(#clip11_80)">
		<path id="矢量 121" d="M93.7566 32.0988L97.7776 32.0988L97.7776 79.0123L93.7566 79.0123L93.7566 93.0864C93.7566 94.3306 93.3328 95.524 92.5786 96.4037C91.8247 97.2833 90.8018 97.7778 89.7354 97.7778L17.3545 97.7778C16.2878 97.7778 15.2651 97.2833 14.511 96.4037C13.7568 95.524 13.3333 94.3306 13.3333 93.0864L13.3333 18.0247C13.3333 16.7804 13.7568 15.5872 14.511 14.7074C15.2651 13.8276 16.2878 13.3333 17.3545 13.3333L89.7354 13.3333C90.8018 13.3333 91.8247 13.8276 92.5786 14.7074C93.3328 15.5872 93.7566 16.7804 93.7566 18.0247L93.7566 32.0988ZM85.7141 79.0123L61.5872 79.0123C56.2546 79.0123 51.1406 76.5409 47.3704 72.1418C43.5996 67.7432 41.4814 61.7768 41.4814 55.5555C41.4814 49.3344 43.5996 43.3681 47.3704 38.9691C51.1406 34.5701 56.2546 32.0988 61.5872 32.0988L85.7141 32.0988L85.7141 22.716L21.3755 22.716L21.3755 88.3951L85.7141 88.3951L85.7141 79.0123ZM89.7354 69.6296L89.7354 41.4815L61.5872 41.4815C58.3879 41.4815 55.3193 42.9643 53.0571 45.6037C50.7949 48.2431 49.5237 51.8231 49.5237 55.5555C49.5237 59.288 50.7949 62.868 53.0571 65.5073C55.3193 68.1467 58.3879 69.6296 61.5872 69.6296L89.7354 69.6296ZM61.5872 50.8642L73.6506 50.8642L73.6506 60.2469L61.5872 60.2469L61.5872 50.8642Z" fill="#FAFAFA" fill-opacity="1.000000" fill-rule="evenodd"/>
	</g>
</svg>
