<svg width="111.110107" height="111.109985" viewBox="0 0 111.11 111.11" fill="none" xmlns="http://www.w3.org/2000/svg" xmlns:xlink="http://www.w3.org/1999/xlink">
	<desc>
			Created with Pixso.
	</desc>
	<defs/>
	<rect id="recipe__115" rx="-0.500000" width="110.110001" height="110.110001" transform="translate(0.500000 0.500000)" fill="#FFFFFF" fill-opacity="0"/>
	<path id="Shape" d="M30.4512 19.3796L39.7441 28.6847C40.5757 29.5235 40.5757 30.8812 39.7441 31.72C38.9062 32.5588 37.5505 32.5588 36.7126 31.72L25.0696 20.0615C23.6836 18.6736 21.4297 18.6736 20.0376 20.0615C18.6516 21.4555 18.6516 23.7123 20.0376 25.1063L31.8616 36.9458C32.5305 37.7725 32.4761 38.9915 31.7107 39.7639C30.8853 40.5906 29.5413 40.5906 28.7156 39.7639L19.6096 30.6459C18.1694 29.2037 15.8252 29.2037 14.3848 30.6459C12.9385 32.0881 12.9385 34.4355 14.3848 35.8777L19.4832 40.9889L25.4312 46.9448C31.313 52.8344 40.8589 52.8344 46.7407 46.9448C52.6165 41.0552 52.6165 31.4968 46.7407 25.6072L40.7927 19.6512L40.7866 19.6572L35.4834 14.3409C34.0913 12.953 31.8374 12.953 30.4512 14.3409C29.0591 15.7349 29.0591 17.9918 30.4512 19.3796ZM40.7925 61.7415L87.3887 15.0775C88.564 13.9008 90.4744 13.9008 91.6494 15.0775C99.8816 23.3204 99.8816 36.7048 91.6494 44.9478L57.8352 78.8068C55.4849 81.1663 51.6641 81.1663 49.3137 78.8068L45.053 74.5405L23.605 96.017C21.2546 98.3704 17.4338 98.3704 15.0835 96.017C12.7334 93.6635 12.7334 89.8377 15.0835 87.4843L40.7925 61.7415ZM95.7354 96.0587C98.0918 93.7053 98.0918 89.8795 95.7354 87.526L82.7725 74.54C80.4221 72.1866 76.6016 72.1866 74.2512 74.54C71.9009 76.8934 71.9009 80.7192 74.2512 83.0726L87.2141 96.0587C89.5703 98.4121 93.385 98.4121 95.7354 96.0587Z" clip-rule="evenodd" fill="#FFFFFF" fill-opacity="1.000000" fill-rule="evenodd"/>
</svg>
