<svg width="111.110107" height="111.110001" viewBox="0 0 111.11 111.11" fill="none" xmlns="http://www.w3.org/2000/svg" xmlns:xlink="http://www.w3.org/1999/xlink">
	<desc>
			Created with Pixso.
	</desc>
	<defs>
		<clipPath id="clip13_196">
			<rect id="magic-line" width="111.110001" height="111.110001" fill="white" fill-opacity="0"/>
		</clipPath>
	</defs>
	<rect id="magic-line" width="111.110001" height="111.110001" fill="#FFFFFF" fill-opacity="0"/>
	<g clip-path="url(#clip13_196)">
		<path id="矢量 106" d="M69.2339 46.0927C67.3235 44.283 66.0947 41.8707 65.7544 39.2614L63.9792 25.6825L51.9553 32.2275C49.6433 33.4873 46.968 33.9119 44.3796 33.43L30.9197 30.9194L33.4302 44.3794C33.9121 46.9679 33.4875 49.6431 32.2278 51.955L25.6829 63.9791L39.2617 65.7541C41.8694 66.0955 44.28 67.3243 46.0886 69.2336L55.5051 79.1745L61.3894 66.8112C62.5188 64.4354 64.4321 62.5208 66.8069 61.3893L79.1746 55.505L69.2339 46.0927L69.2339 46.0927ZM69.344 70.5946L59.5969 91.0752C59.4124 91.4624 59.1367 91.7989 58.7932 92.0557C58.4495 92.3125 58.0488 92.482 57.625 92.549C57.2014 92.6164 56.7681 92.5794 56.3618 92.4415C55.9553 92.3037 55.5889 92.0689 55.2937 91.7579L39.6934 75.2897C39.2766 74.8502 38.7214 74.5674 38.1208 74.4881L15.6274 71.546C15.2026 71.49 14.7976 71.3315 14.4475 71.0839C14.0974 70.8369 13.8127 70.5078 13.6182 70.126C13.4236 69.7441 13.3247 69.3204 13.3303 68.8919C13.3357 68.4633 13.4456 68.0422 13.6499 67.6657L24.4937 47.74C24.782 47.207 24.8784 46.5913 24.7666 45.9958L20.6133 23.6961C20.5344 23.2741 20.5596 22.8391 20.6868 22.4289C20.8137 22.0188 21.0388 21.6457 21.3423 21.3421C21.646 21.0385 22.019 20.8134 22.4292 20.6864C22.8394 20.5593 23.2744 20.5341 23.6965 20.613L45.9961 24.7664C46.5916 24.878 47.2073 24.7816 47.7402 24.4933L67.6658 13.6496C68.0427 13.4451 68.4639 13.3355 68.8928 13.3302C69.3218 13.3249 69.7456 13.4241 70.1274 13.6193C70.5098 13.8144 70.8384 14.0996 71.0854 14.4502C71.3325 14.8008 71.4907 15.2062 71.5461 15.6316L74.4883 38.1207C74.5676 38.7212 74.8503 39.2763 75.2898 39.6931L91.7581 55.2936C92.0693 55.5887 92.3037 55.9551 92.4417 56.3617C92.5796 56.7677 92.6165 57.2011 92.5491 57.6249C92.4822 58.0486 92.3125 58.4494 92.0557 58.7929C91.7991 59.1365 91.4624 59.4122 91.0754 59.5967L70.5947 69.3438C70.0464 69.6045 69.6047 70.0463 69.344 70.5946L69.344 70.5946ZM72.8542 79.082L79.082 72.8541L97.77 91.5377L91.5378 97.77L72.8542 79.082L72.8542 79.082Z" fill="#FFFFFF" fill-opacity="1.000000" fill-rule="evenodd"/>
	</g>
</svg>
