<svg width="79.000000" height="77.000000" viewBox="0 0 79 77" fill="none" xmlns="http://www.w3.org/2000/svg" xmlns:xlink="http://www.w3.org/1999/xlink">
	<desc>
			Created with Pixso.
	</desc>
	<defs/>
	<path id="矢量 28" d="M11.06 45.49C9.65 40.59 9.65 35.4 11.06 30.5L4 26.56L11.24 14.43L18.31 18.37C22 14.74 26.65 12.15 31.75 10.88L31.75 3L46.24 3L46.24 10.88C51.42 12.17 56.05 14.8 59.68 18.37L66.75 14.43L74 26.56L66.93 30.5C68.34 35.4 68.34 40.59 66.93 45.49L74 49.43L66.75 61.56L59.68 57.62C56.05 61.19 51.42 63.83 46.24 65.11L46.24 73L31.75 73L31.75 65.11C26.65 63.84 22 61.25 18.31 57.62L11.24 61.56L4 49.43L11.06 45.49L11.06 45.49ZM39 55.5C40.9 55.5 43.08 55.28 45.5 54.5C47.95 53.7 50 52.5 52.5 50C53.76 48.73 54.81 46.74 55.75 44.5C56.67 42.29 57 39.84 57 38C57 35.95 56.5 34.02 55.75 31.5C55.18 29.59 54.02 28.03 52.5 26C51 24 48.5 22.5 46.5 21.5C44.5 20.49 41.08 20 39 20C37.08 20 33.81 20.57 31.5 21.5C30.29 21.98 28.37 23.19 27.5 24C26.7 24.73 25.84 25.86 25 27C23.5 29 23.28 29.28 22.5 31.5C21.71 33.7 21.5 36.14 21.5 38C21.5 39.76 21.51 42.31 22.5 44.5C23.59 46.92 25.07 49.07 26 50C27 51 29.19 52.95 31.5 54C33.8 55.04 37.07 55.5 39 55.5Z" fill="#FFFFFF" fill-opacity="1.000000" fill-rule="evenodd"/>
	<path id="矢量 28" d="M11.06 30.5L4 26.56L11.24 14.43L18.31 18.37C22 14.74 26.65 12.15 31.75 10.88L31.75 3L46.24 3L46.24 10.88C51.42 12.17 56.05 14.8 59.68 18.37L66.75 14.43L74 26.56L66.93 30.5C68.34 35.4 68.34 40.59 66.93 45.49L74 49.43L66.75 61.56L59.68 57.62C56.05 61.19 51.42 63.83 46.24 65.11L46.24 73L31.75 73L31.75 65.11C26.65 63.84 22 61.25 18.31 57.62L11.24 61.56L4 49.43L11.06 45.49L11.06 45.49C9.65 40.59 9.65 35.4 11.06 30.5ZM46.5 21.5C44.5 20.49 41.08 20 39 20C37.08 20 33.81 20.57 31.5 21.5C30.29 21.98 28.37 23.19 27.5 24C26.7 24.73 25.84 25.86 25 27C23.5 29 23.28 29.28 22.5 31.5C21.71 33.7 21.5 36.14 21.5 38C21.5 39.76 21.51 42.31 22.5 44.5C23.59 46.92 25.07 49.07 26 50C27 51 29.19 52.95 31.5 54C33.8 55.04 37.07 55.5 39 55.5C40.9 55.5 43.08 55.28 45.5 54.5C47.95 53.7 50 52.5 52.5 50C53.76 48.73 54.81 46.74 55.75 44.5C56.67 42.29 57 39.84 57 38C57 35.95 56.5 34.02 55.75 31.5C55.18 29.59 54.02 28.03 52.5 26C51 24 48.5 22.5 46.5 21.5Z" stroke="#FFFFFF" stroke-opacity="1.000000" stroke-width="7.000000"/>
</svg>
