<svg width="111.111084" height="111.111115" viewBox="0 0 111.111 111.111" fill="none" xmlns="http://www.w3.org/2000/svg" xmlns:xlink="http://www.w3.org/1999/xlink">
	<desc>
			Created with Pixso.
	</desc>
	<defs>
		<clipPath id="clip13_140">
			<rect id="shopping-basket-line" width="111.111107" height="111.111107" fill="white" fill-opacity="0"/>
		</clipPath>
	</defs>
	<rect id="shopping-basket-line" width="111.111107" height="111.111107" fill="#FFFFFF" fill-opacity="0"/>
	<g clip-path="url(#clip13_140)">
		<path id="矢量 123" d="M55.5499 13.33C62.2684 13.33 68.7117 16.1393 73.4622 21.14C78.2133 26.1407 80.882 32.9232 80.882 39.9952L80.882 44.4394L97.77 44.4394L97.77 53.3279L92.8429 53.3279L89.6469 93.6946C89.559 94.8052 89.0781 95.8403 88.2992 96.5954C87.5203 97.35 86.5006 97.7695 85.4418 97.77L25.6582 97.77C24.5995 97.7695 23.5797 97.35 22.8008 96.5954C22.022 95.8403 21.5409 94.8052 21.4531 93.6946L18.2528 53.3279L13.33 53.3279L13.33 44.4394L30.218 44.4394L30.218 39.9952C30.218 32.9232 32.8868 26.1407 37.6376 21.14C42.3882 16.1393 48.8315 13.33 55.5499 13.33L55.5499 13.33ZM84.3694 53.3279L26.7263 53.3279L29.5425 88.8815L81.5532 88.8815L84.3694 53.3279ZM59.772 62.2163L59.772 79.9931L51.328 79.9931L51.328 62.2163L59.772 62.2163ZM42.8839 62.2163L42.8839 79.9931L34.4399 79.9931L34.4399 62.2163L42.8839 62.2163ZM76.6599 62.2163L76.6599 79.9931L68.2159 79.9931L68.2159 62.2163L76.6599 62.2163ZM55.5499 22.2184C51.2173 22.2184 47.05 23.9713 43.9106 27.1147C40.7712 30.258 38.8997 34.5512 38.6831 39.1064L38.662 39.9952L38.662 44.4394L72.438 44.4394L72.438 39.9952C72.438 35.4344 70.7728 31.048 67.7866 27.7434C64.8004 24.4387 60.7219 22.4686 56.3944 22.2406L55.5499 22.2184Z" fill="#FAFAFA" fill-opacity="1.000000" fill-rule="evenodd"/>
	</g>
</svg>
