<svg width="456.000000" height="456.000000" viewBox="0 0 456 456" fill="none" xmlns="http://www.w3.org/2000/svg" xmlns:xlink="http://www.w3.org/1999/xlink">
	<desc>
			Created with Pixso.
	</desc>
	<defs>
		<clipPath id="clip20_81">
			<rect id="appiconfg" rx="50.000000" width="456.000000" height="456.000000" fill="white" fill-opacity="0"/>
		</clipPath>
	</defs>
	<g clip-path="url(#clip20_81)">
		<path id="$" d="M232.43 293.07L224.06 293.07L224.06 281.47C202.05 280.21 188.27 268.64 187.53 249.06L206.2 249.06C206.87 258.76 214.18 264.1 224.06 265.16L224.06 234.33L218.23 232.85C201 228.39 190.31 219.77 190.31 204.73C190.24 187.53 204.48 175.69 224.06 174.03L224.06 162.19L232.43 162.19L232.43 173.93C252.68 175.27 266.14 187.32 266.5 204.06L248.25 204.06C247.37 196.22 241.53 191.23 232.43 190.1L232.43 219.25L237.14 220.41C252.89 224.17 267.87 232.43 267.94 250.6C267.87 267.97 254.93 280.1 232.43 281.47L232.43 293.07ZM209.54 203.53C209.44 211.16 216.54 214.89 224.06 217.1L224.06 190.21C214.89 191.47 209.58 196.71 209.54 203.53ZM232.43 236.54L232.43 265.12C242.34 263.82 248.92 258.27 248.95 250.43C248.92 242.87 242.45 239.28 232.43 236.54Z" fill="#FFFFFF" fill-opacity="1.000000" fill-rule="evenodd"/>
	</g>
</svg>
